<svg width="212" height="202" viewBox="0 0 212 202" fill="none" xmlns="http://www.w3.org/2000/svg">
<g clip-path="url(#clip0_948_36961)">
<path d="M83.5787 30.6538C112.048 35.9479 158.014 20.9741 170.405 53.9787C180.803 81.6554 159.722 102.452 183.657 126.177C201.105 143.469 229.127 173.274 195.221 191.454C168.697 205.689 131.428 203.594 103.989 193.569C82.4467 185.699 38.8608 162.225 37.6135 136.006C36.2171 106.539 80.7724 91.4301 39.2471 72.0571C14.2479 60.4048 -14.3981 37.6899 9.84189 7.66109C19.4064 -4.18099 29.3708 0.204709 39.4573 7.66109C54.3497 18.7169 64.0023 27.0138 83.5787 30.6538Z" fill="#CE352F"/>
<path opacity="0.9" d="M83.5787 30.6538C112.048 35.9479 158.014 20.9741 170.405 53.9787C180.803 81.6554 159.722 102.452 183.657 126.177C201.105 143.469 229.127 173.274 195.221 191.454C168.697 205.689 131.428 203.594 103.989 193.569C82.4467 185.699 38.8608 162.225 37.6135 136.006C36.2171 106.539 80.7724 91.4301 39.2471 72.0571C14.2479 60.4048 -14.3981 37.6899 9.84189 7.66109C19.4064 -4.18099 29.3708 0.204709 39.4573 7.66109C54.3497 18.7169 64.0023 27.0138 83.5787 30.6538Z" fill="white"/>
<path opacity="0.2" d="M155.136 100.392C155.091 100.397 155.046 100.385 155.011 100.357C154.975 100.329 154.952 100.288 154.947 100.243C154.941 100.198 154.954 100.153 154.982 100.117C155.01 100.081 155.051 100.058 155.096 100.053C156.961 99.6508 158.613 98.5773 159.739 97.0365C159.763 96.9992 159.8 96.9726 159.843 96.9625C159.886 96.9524 159.932 96.9595 159.969 96.9823C159.989 96.9934 160.005 97.0083 160.019 97.0262C160.032 97.044 160.041 97.0643 160.046 97.0859C160.051 97.1074 160.052 97.1298 160.048 97.1517C160.044 97.1735 160.036 97.1943 160.024 97.2128C158.863 98.8439 157.13 99.9769 155.17 100.385L155.136 100.392Z" fill="white"/>
<path d="M140.991 107.996L137.662 114.775C137.505 115.095 137.283 115.379 137.012 115.61C136.741 115.842 136.425 116.015 136.085 116.121C135.744 116.226 135.385 116.261 135.031 116.223C134.676 116.185 134.333 116.075 134.022 115.9L91.1211 91.7212L94.8967 84.0547L139.723 104.485C140.038 104.631 140.322 104.838 140.556 105.093C140.791 105.349 140.973 105.649 141.091 105.976C141.208 106.303 141.26 106.649 141.243 106.996C141.226 107.343 141.14 107.683 140.991 107.996Z" fill="#CE352F"/>
<path opacity="0.4" d="M140.991 107.996L137.662 114.775C137.505 115.095 137.283 115.379 137.012 115.61C136.741 115.842 136.425 116.015 136.085 116.121C135.744 116.226 135.385 116.261 135.031 116.223C134.676 116.185 134.333 116.075 134.022 115.9L91.1211 91.7212L94.8967 84.0547L139.723 104.485C140.038 104.631 140.322 104.838 140.556 105.093C140.791 105.349 140.973 105.649 141.091 105.976C141.208 106.303 141.26 106.649 141.243 106.996C141.226 107.343 141.14 107.683 140.991 107.996Z" fill="black"/>
<path d="M94.93 56.5074C94.8758 56.3718 94.8283 56.243 94.7809 56.1142C94.5979 55.6397 94.4013 55.172 94.1979 54.7043L94.1098 54.5212C93.9336 54.1145 93.7438 53.7146 93.5472 53.3147C93.4794 53.1723 93.4048 53.0367 93.3303 52.8944C93.1608 52.5555 92.9846 52.2165 92.8016 51.8844C92.727 51.7624 92.6592 51.6336 92.5914 51.5048C92.3406 51.0574 92.0762 50.6168 91.8051 50.1491L91.7102 50C91.4662 49.6136 91.2154 49.2272 90.9578 48.8476L90.6799 48.4545C90.463 48.1427 90.2325 47.8308 90.002 47.519L89.7377 47.1598C89.4191 46.7463 89.0937 46.3328 88.7615 45.9329L88.6599 45.8176C88.3548 45.4516 88.0362 45.0923 87.7177 44.7398L87.3923 44.3874C87.1211 44.1027 86.85 43.818 86.5721 43.54L86.2467 43.2079C85.8671 42.8328 85.4807 42.4668 85.0876 42.1098L85.0062 42.0352C84.6334 41.6963 84.2538 41.3574 83.8607 41.0455L83.4879 40.7405L82.5389 39.9949L82.1593 39.7034C81.7074 39.378 81.2555 39.0594 80.8036 38.7476H80.7561C80.3155 38.4561 79.8681 38.1647 79.4004 37.8867L78.9666 37.6224C78.6209 37.4123 78.2887 37.2089 77.9023 37.0055L77.4617 36.7615C76.9669 36.4904 76.4721 36.226 75.9569 35.9752C57.8379 27.0818 36.4788 33.4468 28.27 50.2101L25.5586 55.6329C33.7674 38.9035 55.1265 32.5385 73.2523 41.4319C73.7607 41.6827 74.2623 41.9471 74.7503 42.2114C74.8995 42.2928 75.0486 42.3741 75.1909 42.4623C75.5502 42.6588 75.9095 42.869 76.2619 43.0791L76.689 43.3367C77.1432 43.6214 77.5905 43.9061 78.0447 44.2043L78.0922 44.2382C78.5531 44.55 78.9937 44.8686 79.4479 45.194L79.8275 45.4855C80.146 45.7295 80.4646 45.9735 80.7697 46.2243L81.156 46.5361C81.5424 46.8615 81.922 47.214 82.2948 47.519L82.3762 47.5936C82.7761 47.9529 83.1557 48.3257 83.5353 48.6985C83.6505 48.8069 83.7522 48.9154 83.8607 49.0239C84.1386 49.3018 84.4097 49.5865 84.6809 49.8712L85.0062 50.2304C85.3316 50.5829 85.6434 50.9083 85.9485 51.3082L86.0501 51.4235C86.3845 51.8257 86.7099 52.2324 87.0262 52.6436L87.2974 53.0096C87.5279 53.3147 87.7515 53.6265 87.9752 53.9451C88.0634 54.0739 88.1583 54.2027 88.2464 54.3382C88.504 54.7178 88.7548 55.0974 88.9988 55.4838C89.0327 55.538 89.0666 55.5855 89.0937 55.6397C89.3648 56.0735 89.6292 56.5209 89.88 56.9954L90.0901 57.3818C90.2732 57.7139 90.4494 58.0596 90.6256 58.3918L90.8358 58.812C91.0323 59.212 91.2221 59.6119 91.3984 60.0118C91.4323 60.0729 91.4594 60.1406 91.4865 60.2016C91.6899 60.6626 91.8864 61.1371 92.0695 61.6048L92.2186 61.998C92.3542 62.3572 92.4762 62.6758 92.5982 63.0622C92.6524 63.2113 92.6999 63.3604 92.7473 63.5096C92.8829 63.9163 93.0049 64.323 93.1269 64.7365C93.1269 64.811 93.1744 64.8856 93.1947 64.9669C93.3303 65.4482 93.4523 65.9363 93.5607 66.4176C93.5607 66.5531 93.6217 66.6887 93.6489 66.8243C93.7302 67.1903 93.8048 67.5563 93.8726 67.9224C93.8726 68.0783 93.9336 68.2342 93.9539 68.3901C94.0285 68.7968 94.0895 69.2103 94.1437 69.6238C94.1437 69.7119 94.1437 69.7933 94.1776 69.8814C94.2454 70.3762 94.2928 70.871 94.3335 71.3659V71.7726C94.3606 72.1477 94.3809 72.5205 94.3945 72.891C94.3945 73.0469 94.3945 73.2096 94.3945 73.3655C94.3945 73.7722 94.3945 74.179 94.3945 74.5924V74.8704C94.3945 75.0263 94.3945 75.1822 94.3945 75.3313C94.3945 75.7855 94.3538 76.2464 94.3132 76.687C94.3132 76.9039 94.2657 77.1208 94.2454 77.3649C94.2047 77.749 94.1572 78.1354 94.103 78.524C94.103 78.7612 94.0285 78.9985 93.9878 79.2018C93.9268 79.5747 93.859 79.9475 93.7844 80.3135C93.737 80.5508 93.6828 80.788 93.6353 80.9914C93.5472 81.371 93.4523 81.7506 93.3506 82.1234C93.2828 82.3606 93.2218 82.5979 93.154 82.8419L92.9913 83.3639C92.8897 83.696 92.7812 84.0417 92.666 84.3535C92.605 84.5365 92.5372 84.7128 92.4694 84.8958C92.3474 85.2347 92.2118 85.5737 92.0695 85.9126C92.0085 86.0685 91.9475 86.2244 91.8797 86.3803C91.6695 86.8684 91.4526 87.3564 91.2018 87.8377L93.8793 82.381C94.1166 81.8997 94.3335 81.4117 94.5572 80.9236C94.625 80.7677 94.686 80.6118 94.747 80.4559C94.8893 80.117 95.0181 79.778 95.1469 79.4391C95.2147 79.2629 95.2757 79.0798 95.3435 78.9036C95.4587 78.5714 95.5672 78.2257 95.6689 77.9139L95.8316 77.3852L95.9129 77.1276C95.9536 76.9785 95.9874 76.8226 96.0281 76.6667C96.123 76.2939 96.2247 75.921 96.306 75.5414C96.3603 75.3042 96.4145 75.0737 96.4619 74.8636C96.5365 74.4908 96.6043 74.118 96.6653 73.7519C96.706 73.5147 96.7466 73.2774 96.7805 73.0741C96.8348 72.6877 96.8822 72.3013 96.9229 71.9082C96.9229 71.6912 96.9703 71.4743 96.9907 71.2303C97.0313 70.7761 97.0517 70.322 97.072 69.8746C97.072 69.7458 97.072 69.617 97.072 69.4882V69.129C97.072 68.7222 97.072 68.3088 97.072 67.9021C97.072 67.7461 97.072 67.5902 97.072 67.4343C97.072 67.0615 97.072 66.6819 97.011 66.3091C97.011 66.1735 97.011 66.038 97.011 65.9092C97.011 65.4076 96.9229 64.9127 96.8619 64.4179C96.8619 64.3365 96.8619 64.2484 96.828 64.1603C96.7738 63.7536 96.7128 63.3401 96.6382 62.9266L96.5568 62.4657C96.4891 62.0996 96.4145 61.7336 96.3332 61.3676C96.3332 61.232 96.2789 61.0964 96.245 60.9608C96.1298 60.4728 96.0078 59.9847 95.879 59.5035C95.8524 59.4279 95.8298 59.351 95.8112 59.273C95.6892 58.8663 95.5672 58.4596 95.4316 58.0529C95.3842 57.9037 95.3367 57.7546 95.2825 57.6055C95.1876 57.2123 95.0588 56.8598 94.93 56.5074Z" fill="#CE352F"/>
<path opacity="0.4" d="M94.93 56.5074C94.8758 56.3718 94.8283 56.243 94.7809 56.1142C94.5979 55.6397 94.4013 55.172 94.1979 54.7043L94.1098 54.5212C93.9336 54.1145 93.7438 53.7146 93.5472 53.3147C93.4794 53.1723 93.4048 53.0367 93.3303 52.8944C93.1608 52.5555 92.9846 52.2165 92.8016 51.8844C92.727 51.7624 92.6592 51.6336 92.5914 51.5048C92.3406 51.0574 92.0762 50.6168 91.8051 50.1491L91.7102 50C91.4662 49.6136 91.2154 49.2272 90.9578 48.8476L90.6799 48.4545C90.463 48.1427 90.2325 47.8308 90.002 47.519L89.7377 47.1598C89.4191 46.7463 89.0937 46.3328 88.7615 45.9329L88.6599 45.8176C88.3548 45.4516 88.0362 45.0923 87.7177 44.7398L87.3923 44.3874C87.1211 44.1027 86.85 43.818 86.5721 43.54L86.2467 43.2079C85.8671 42.8328 85.4807 42.4668 85.0876 42.1098L85.0062 42.0352C84.6334 41.6963 84.2538 41.3574 83.8607 41.0455L83.4879 40.7405L82.5389 39.9949L82.1593 39.7034C81.7074 39.378 81.2555 39.0594 80.8036 38.7476H80.7561C80.3155 38.4561 79.8681 38.1647 79.4004 37.8867L78.9666 37.6224C78.6209 37.4123 78.2887 37.2089 77.9023 37.0055L77.4617 36.7615C76.9669 36.4904 76.4721 36.226 75.9569 35.9752C57.8379 27.0818 36.4788 33.4468 28.27 50.2101L25.5586 55.6329C33.7674 38.9035 55.1265 32.5385 73.2523 41.4319C73.7607 41.6827 74.2623 41.9471 74.7503 42.2114C74.8995 42.2928 75.0486 42.3741 75.1909 42.4623C75.5502 42.6588 75.9095 42.869 76.2619 43.0791L76.689 43.3367C77.1432 43.6214 77.5905 43.9061 78.0447 44.2043L78.0922 44.2382C78.5531 44.55 78.9937 44.8686 79.4479 45.194L79.8275 45.4855C80.146 45.7295 80.4646 45.9735 80.7697 46.2243L81.156 46.5361C81.5424 46.8615 81.922 47.214 82.2948 47.519L82.3762 47.5936C82.7761 47.9529 83.1557 48.3257 83.5353 48.6985C83.6505 48.8069 83.7522 48.9154 83.8607 49.0239C84.1386 49.3018 84.4097 49.5865 84.6809 49.8712L85.0062 50.2304C85.3316 50.5829 85.6434 50.9083 85.9485 51.3082L86.0501 51.4235C86.3845 51.8257 86.7099 52.2324 87.0262 52.6436L87.2974 53.0096C87.5279 53.3147 87.7515 53.6265 87.9752 53.9451C88.0634 54.0739 88.1583 54.2027 88.2464 54.3382C88.504 54.7178 88.7548 55.0974 88.9988 55.4838C89.0327 55.538 89.0666 55.5855 89.0937 55.6397C89.3648 56.0735 89.6292 56.5209 89.88 56.9954L90.0901 57.3818C90.2732 57.7139 90.4494 58.0596 90.6256 58.3918L90.8358 58.812C91.0323 59.212 91.2221 59.6119 91.3984 60.0118C91.4323 60.0729 91.4594 60.1406 91.4865 60.2016C91.6899 60.6626 91.8864 61.1371 92.0695 61.6048L92.2186 61.998C92.3542 62.3572 92.4762 62.6758 92.5982 63.0622C92.6524 63.2113 92.6999 63.3604 92.7473 63.5096C92.8829 63.9163 93.0049 64.323 93.1269 64.7365C93.1269 64.811 93.1744 64.8856 93.1947 64.9669C93.3303 65.4482 93.4523 65.9363 93.5607 66.4176C93.5607 66.5531 93.6217 66.6887 93.6489 66.8243C93.7302 67.1903 93.8048 67.5563 93.8726 67.9224C93.8726 68.0783 93.9336 68.2342 93.9539 68.3901C94.0285 68.7968 94.0895 69.2103 94.1437 69.6238C94.1437 69.7119 94.1437 69.7933 94.1776 69.8814C94.2454 70.3762 94.2928 70.871 94.3335 71.3659V71.7726C94.3606 72.1477 94.3809 72.5205 94.3945 72.891C94.3945 73.0469 94.3945 73.2096 94.3945 73.3655C94.3945 73.7722 94.3945 74.179 94.3945 74.5924V74.8704C94.3945 75.0263 94.3945 75.1822 94.3945 75.3313C94.3945 75.7855 94.3538 76.2464 94.3132 76.687C94.3132 76.9039 94.2657 77.1208 94.2454 77.3649C94.2047 77.749 94.1572 78.1354 94.103 78.524C94.103 78.7612 94.0285 78.9985 93.9878 79.2018C93.9268 79.5747 93.859 79.9475 93.7844 80.3135C93.737 80.5508 93.6828 80.788 93.6353 80.9914C93.5472 81.371 93.4523 81.7506 93.3506 82.1234C93.2828 82.3606 93.2218 82.5979 93.154 82.8419L92.9913 83.3639C92.8897 83.696 92.7812 84.0417 92.666 84.3535C92.605 84.5365 92.5372 84.7128 92.4694 84.8958C92.3474 85.2347 92.2118 85.5737 92.0695 85.9126C92.0085 86.0685 91.9475 86.2244 91.8797 86.3803C91.6695 86.8684 91.4526 87.3564 91.2018 87.8377L93.8793 82.381C94.1166 81.8997 94.3335 81.4117 94.5572 80.9236C94.625 80.7677 94.686 80.6118 94.747 80.4559C94.8893 80.117 95.0181 79.778 95.1469 79.4391C95.2147 79.2629 95.2757 79.0798 95.3435 78.9036C95.4587 78.5714 95.5672 78.2257 95.6689 77.9139L95.8316 77.3852L95.9129 77.1276C95.9536 76.9785 95.9874 76.8226 96.0281 76.6667C96.123 76.2939 96.2247 75.921 96.306 75.5414C96.3603 75.3042 96.4145 75.0737 96.4619 74.8636C96.5365 74.4908 96.6043 74.118 96.6653 73.7519C96.706 73.5147 96.7466 73.2774 96.7805 73.0741C96.8348 72.6877 96.8822 72.3013 96.9229 71.9082C96.9229 71.6912 96.9703 71.4743 96.9907 71.2303C97.0313 70.7761 97.0517 70.322 97.072 69.8746C97.072 69.7458 97.072 69.617 97.072 69.4882V69.129C97.072 68.7222 97.072 68.3088 97.072 67.9021C97.072 67.7461 97.072 67.5902 97.072 67.4343C97.072 67.0615 97.072 66.6819 97.011 66.3091C97.011 66.1735 97.011 66.038 97.011 65.9092C97.011 65.4076 96.9229 64.9127 96.8619 64.4179C96.8619 64.3365 96.8619 64.2484 96.828 64.1603C96.7738 63.7536 96.7128 63.3401 96.6382 62.9266L96.5568 62.4657C96.4891 62.0996 96.4145 61.7336 96.3332 61.3676C96.3332 61.232 96.2789 61.0964 96.245 60.9608C96.1298 60.4728 96.0078 59.9847 95.879 59.5035C95.8524 59.4279 95.8298 59.351 95.8112 59.273C95.6892 58.8663 95.5672 58.4596 95.4316 58.0529C95.3842 57.9037 95.3367 57.7546 95.2825 57.6055C95.1876 57.2123 95.0588 56.8598 94.93 56.5074Z" fill="black"/>
<path d="M41.8286 105.57C41.1508 105.244 40.5203 104.892 39.8832 104.56L39.3138 104.241C38.8461 103.977 38.3851 103.713 37.9581 103.435L37.4022 103.102C36.8125 102.736 36.2295 102.364 35.6602 101.977L35.5924 101.937C35.0004 101.53 34.4242 101.116 33.8638 100.696L33.3622 100.317C32.9487 100.005 32.542 99.6793 32.1353 99.354L31.6473 98.954C31.1457 98.5337 30.6508 98.1135 30.1695 97.6797L30.0611 97.5848C29.5459 97.117 29.0443 96.6425 28.5563 96.1545L28.1292 95.7274C27.7699 95.3682 27.4514 95.0021 27.0785 94.6293L26.6515 94.1684C26.2312 93.7074 25.8245 93.2397 25.4246 92.772L25.3026 92.6229C24.862 92.1009 24.4417 91.5722 24.035 91.0367L23.6825 90.569C23.3842 90.169 23.0928 89.7623 22.8081 89.3556L22.4556 88.8472C22.1167 88.3524 21.7777 87.8576 21.4795 87.356L21.3507 87.1526C20.9982 86.59 20.6728 86.0138 20.3339 85.4376C20.239 85.2749 20.1509 85.1055 20.0628 84.936C19.8233 84.5067 19.5973 84.0729 19.3849 83.6346C19.29 83.4515 19.1951 83.2685 19.107 83.0855C18.8562 82.5703 18.6122 82.0552 18.3749 81.5332C18.3749 81.4519 18.3004 81.3705 18.2597 81.2824C17.9953 80.6859 17.7445 80.0758 17.5073 79.4658C17.4395 79.2963 17.3785 79.1201 17.3175 78.9506C17.1412 78.4964 16.9785 78.0355 16.8226 77.5949C16.7548 77.3983 16.6871 77.2085 16.6261 77.0119C16.4589 76.4877 16.2962 75.959 16.138 75.4258C16.138 75.3309 16.077 75.2292 16.0499 75.1275C15.8736 74.5039 15.7177 73.8735 15.5754 73.2431C15.5347 73.0668 15.494 72.8906 15.4601 72.7211C15.3517 72.2466 15.2568 71.7654 15.1687 71.2909C15.1687 71.0943 15.0941 70.8909 15.0602 70.6943C14.9744 70.1566 14.893 69.6211 14.8162 69.0878C14.8162 68.9794 14.8162 68.8641 14.7687 68.7557C14.6874 68.1185 14.6264 67.4745 14.5789 66.8306C14.5789 66.6543 14.5789 66.4849 14.5789 66.3087C14.545 65.8206 14.5179 65.3393 14.5044 64.8513V64.2412C14.5044 63.7125 14.5044 63.1837 14.5044 62.6482V62.2822C14.5044 62.0856 14.5044 61.889 14.5044 61.6925C14.5044 61.1027 14.5586 60.5062 14.6128 59.9165C14.6128 59.6386 14.6738 59.3539 14.701 59.0692C14.7552 58.5676 14.8162 58.066 14.884 57.5643C14.9314 57.2661 14.9789 56.9611 15.0331 56.656C15.1144 56.177 15.2026 55.6957 15.2975 55.2122C15.3585 54.9072 15.4263 54.6021 15.494 54.2971C15.607 53.8091 15.729 53.321 15.8601 52.8329C15.9482 52.5211 16.0228 52.2093 16.1177 51.9043C16.2126 51.5993 16.2532 51.4501 16.3278 51.2264C16.4634 50.7994 16.5989 50.3723 16.7481 49.9453C16.8362 49.708 16.9175 49.4776 16.9989 49.2674C17.1683 48.8201 17.3378 48.3862 17.5208 47.9117L17.7648 47.3084C18.0428 46.6713 18.3275 46.0409 18.6325 45.4172L15.9211 50.8401C15.6161 51.4705 15.3314 52.1009 15.0602 52.7313C14.9721 52.9346 14.8908 53.138 14.8094 53.3345C14.6264 53.7752 14.4569 54.2158 14.2942 54.6903C14.2061 54.9207 14.1248 55.158 14.0434 55.3681C13.8943 55.7952 13.752 56.2222 13.6164 56.656C13.5418 56.8797 13.474 57.1102 13.4063 57.3339C13.4063 57.4491 13.3317 57.5576 13.3046 57.6728C13.2775 57.788 13.2029 58.066 13.1555 58.2693C13.0199 58.7574 12.8979 59.2386 12.7826 59.7267C12.7148 60.0317 12.6538 60.3368 12.5861 60.6418C12.4912 61.1208 12.403 61.6021 12.3217 62.0856C12.2675 62.3907 12.22 62.6957 12.1726 63.0007C12.1048 63.5023 12.0438 64.004 11.9895 64.5056C11.9895 64.7835 11.9285 65.0682 11.9014 65.3529C11.854 65.9426 11.8201 66.5323 11.793 67.1221C11.793 67.2915 11.793 67.4542 11.793 67.6169C11.793 67.6508 11.793 67.6847 11.793 67.7186V68.0846C11.793 68.6133 11.793 69.1421 11.793 69.6776C11.793 69.8809 11.793 70.0843 11.793 70.2876C11.793 70.7689 11.8336 71.257 11.8675 71.7382C11.8675 71.9145 11.8675 72.0907 11.8675 72.2602C11.915 72.938 11.9828 73.5481 12.0573 74.1921C12.0573 74.3005 12.0573 74.409 12.1048 74.5242C12.1793 75.0597 12.2607 75.5952 12.3488 76.1239C12.3827 76.3273 12.4234 76.5239 12.4573 76.7272C12.5454 77.2017 12.6403 77.6762 12.7487 78.1507C12.7487 78.327 12.8233 78.5032 12.864 78.6795C13.0063 79.3099 13.169 79.9403 13.3385 80.5639L13.4266 80.8554C13.5825 81.3909 13.7452 81.9196 13.9146 82.4483C13.9757 82.6449 14.0434 82.8347 14.1112 83.0245C14.2671 83.4854 14.4298 83.9464 14.6061 84.3802C14.6671 84.5564 14.7348 84.7259 14.7959 84.9021C15.0399 85.5122 15.2839 86.1155 15.5483 86.7188C15.5889 86.8001 15.6296 86.8815 15.6635 86.9628C15.9008 87.4847 16.1448 88.0067 16.3956 88.5219L16.6735 89.0709C16.8995 89.5228 17.1254 89.9567 17.3514 90.3724L17.6225 90.874C17.9479 91.4502 18.3004 92.0196 18.6393 92.589L18.7681 92.7923C19.0799 93.2939 19.4052 93.7888 19.7442 94.2768L20.0967 94.7852C20.3814 95.1919 20.6728 95.5986 20.9711 95.9986L21.3236 96.4663C21.7371 97.0018 22.1573 97.5373 22.5912 98.0592L22.7132 98.2016C23.1131 98.6761 23.5198 99.1438 23.9401 99.6048L24.3671 100.059C24.7128 100.432 25.045 100.798 25.4246 101.164L25.8448 101.591C26.3397 102.072 26.8345 102.553 27.3497 103.014L27.4514 103.109C27.9394 103.561 28.4342 103.988 28.9359 104.39L29.4307 104.79C29.8306 105.116 30.2373 105.434 30.6508 105.753L31.1524 106.132C31.7151 106.553 32.2912 106.966 32.881 107.366L32.9487 107.407C33.5181 107.793 34.1011 108.166 34.6908 108.532L35.2467 108.871C35.7008 109.142 36.1618 109.413 36.6024 109.671L37.1718 109.989C37.8089 110.342 38.4597 110.681 39.124 111.006C62.6116 122.53 90.2883 114.287 100.944 92.589L103.615 87.1323C92.9997 108.857 65.323 117.1 41.8286 105.57Z" fill="#CE352F"/>
<path opacity="0.4" d="M41.8286 105.57C41.1508 105.244 40.5203 104.892 39.8832 104.56L39.3138 104.241C38.8461 103.977 38.3851 103.713 37.9581 103.435L37.4022 103.102C36.8125 102.736 36.2295 102.364 35.6602 101.977L35.5924 101.937C35.0004 101.53 34.4242 101.116 33.8638 100.696L33.3622 100.317C32.9487 100.005 32.542 99.6793 32.1353 99.354L31.6473 98.954C31.1457 98.5337 30.6508 98.1135 30.1695 97.6797L30.0611 97.5848C29.5459 97.117 29.0443 96.6425 28.5563 96.1545L28.1292 95.7274C27.7699 95.3682 27.4514 95.0021 27.0785 94.6293L26.6515 94.1684C26.2312 93.7074 25.8245 93.2397 25.4246 92.772L25.3026 92.6229C24.862 92.1009 24.4417 91.5722 24.035 91.0367L23.6825 90.569C23.3842 90.169 23.0928 89.7623 22.8081 89.3556L22.4556 88.8472C22.1167 88.3524 21.7777 87.8576 21.4795 87.356L21.3507 87.1526C20.9982 86.59 20.6728 86.0138 20.3339 85.4376C20.239 85.2749 20.1509 85.1055 20.0628 84.936C19.8233 84.5067 19.5973 84.0729 19.3849 83.6346C19.29 83.4515 19.1951 83.2685 19.107 83.0855C18.8562 82.5703 18.6122 82.0552 18.3749 81.5332C18.3749 81.4519 18.3004 81.3705 18.2597 81.2824C17.9953 80.6859 17.7445 80.0758 17.5073 79.4658C17.4395 79.2963 17.3785 79.1201 17.3175 78.9506C17.1412 78.4964 16.9785 78.0355 16.8226 77.5949C16.7548 77.3983 16.6871 77.2085 16.6261 77.0119C16.4589 76.4877 16.2962 75.959 16.138 75.4258C16.138 75.3309 16.077 75.2292 16.0499 75.1275C15.8736 74.5039 15.7177 73.8735 15.5754 73.2431C15.5347 73.0668 15.494 72.8906 15.4601 72.7211C15.3517 72.2466 15.2568 71.7654 15.1687 71.2909C15.1687 71.0943 15.0941 70.8909 15.0602 70.6943C14.9744 70.1566 14.893 69.6211 14.8162 69.0878C14.8162 68.9794 14.8162 68.8641 14.7687 68.7557C14.6874 68.1185 14.6264 67.4745 14.5789 66.8306C14.5789 66.6543 14.5789 66.4849 14.5789 66.3087C14.545 65.8206 14.5179 65.3393 14.5044 64.8513V64.2412C14.5044 63.7125 14.5044 63.1837 14.5044 62.6482V62.2822C14.5044 62.0856 14.5044 61.889 14.5044 61.6925C14.5044 61.1027 14.5586 60.5062 14.6128 59.9165C14.6128 59.6386 14.6738 59.3539 14.701 59.0692C14.7552 58.5676 14.8162 58.066 14.884 57.5643C14.9314 57.2661 14.9789 56.9611 15.0331 56.656C15.1144 56.177 15.2026 55.6957 15.2975 55.2122C15.3585 54.9072 15.4263 54.6021 15.494 54.2971C15.607 53.8091 15.729 53.321 15.8601 52.8329C15.9482 52.5211 16.0228 52.2093 16.1177 51.9043C16.2126 51.5993 16.2532 51.4501 16.3278 51.2264C16.4634 50.7994 16.5989 50.3723 16.7481 49.9453C16.8362 49.708 16.9175 49.4776 16.9989 49.2674C17.1683 48.8201 17.3378 48.3862 17.5208 47.9117L17.7648 47.3084C18.0428 46.6713 18.3275 46.0409 18.6325 45.4172L15.9211 50.8401C15.6161 51.4705 15.3314 52.1009 15.0602 52.7313C14.9721 52.9346 14.8908 53.138 14.8094 53.3345C14.6264 53.7752 14.4569 54.2158 14.2942 54.6903C14.2061 54.9207 14.1248 55.158 14.0434 55.3681C13.8943 55.7952 13.752 56.2222 13.6164 56.656C13.5418 56.8797 13.474 57.1102 13.4063 57.3339C13.4063 57.4491 13.3317 57.5576 13.3046 57.6728C13.2775 57.788 13.2029 58.066 13.1555 58.2693C13.0199 58.7574 12.8979 59.2386 12.7826 59.7267C12.7148 60.0317 12.6538 60.3368 12.5861 60.6418C12.4912 61.1208 12.403 61.6021 12.3217 62.0856C12.2675 62.3907 12.22 62.6957 12.1726 63.0007C12.1048 63.5023 12.0438 64.004 11.9895 64.5056C11.9895 64.7835 11.9285 65.0682 11.9014 65.3529C11.854 65.9426 11.8201 66.5323 11.793 67.1221C11.793 67.2915 11.793 67.4542 11.793 67.6169C11.793 67.6508 11.793 67.6847 11.793 67.7186V68.0846C11.793 68.6133 11.793 69.1421 11.793 69.6776C11.793 69.8809 11.793 70.0843 11.793 70.2876C11.793 70.7689 11.8336 71.257 11.8675 71.7382C11.8675 71.9145 11.8675 72.0907 11.8675 72.2602C11.915 72.938 11.9828 73.5481 12.0573 74.1921C12.0573 74.3005 12.0573 74.409 12.1048 74.5242C12.1793 75.0597 12.2607 75.5952 12.3488 76.1239C12.3827 76.3273 12.4234 76.5239 12.4573 76.7272C12.5454 77.2017 12.6403 77.6762 12.7487 78.1507C12.7487 78.327 12.8233 78.5032 12.864 78.6795C13.0063 79.3099 13.169 79.9403 13.3385 80.5639L13.4266 80.8554C13.5825 81.3909 13.7452 81.9196 13.9146 82.4483C13.9757 82.6449 14.0434 82.8347 14.1112 83.0245C14.2671 83.4854 14.4298 83.9464 14.6061 84.3802C14.6671 84.5564 14.7348 84.7259 14.7959 84.9021C15.0399 85.5122 15.2839 86.1155 15.5483 86.7188C15.5889 86.8001 15.6296 86.8815 15.6635 86.9628C15.9008 87.4847 16.1448 88.0067 16.3956 88.5219L16.6735 89.0709C16.8995 89.5228 17.1254 89.9567 17.3514 90.3724L17.6225 90.874C17.9479 91.4502 18.3004 92.0196 18.6393 92.589L18.7681 92.7923C19.0799 93.2939 19.4052 93.7888 19.7442 94.2768L20.0967 94.7852C20.3814 95.1919 20.6728 95.5986 20.9711 95.9986L21.3236 96.4663C21.7371 97.0018 22.1573 97.5373 22.5912 98.0592L22.7132 98.2016C23.1131 98.6761 23.5198 99.1438 23.9401 99.6048L24.3671 100.059C24.7128 100.432 25.045 100.798 25.4246 101.164L25.8448 101.591C26.3397 102.072 26.8345 102.553 27.3497 103.014L27.4514 103.109C27.9394 103.561 28.4342 103.988 28.9359 104.39L29.4307 104.79C29.8306 105.116 30.2373 105.434 30.6508 105.753L31.1524 106.132C31.7151 106.553 32.2912 106.966 32.881 107.366L32.9487 107.407C33.5181 107.793 34.1011 108.166 34.6908 108.532L35.2467 108.871C35.7008 109.142 36.1618 109.413 36.6024 109.671L37.1718 109.989C37.8089 110.342 38.4597 110.681 39.124 111.006C62.6116 122.53 90.2883 114.287 100.944 92.589L103.615 87.1323C92.9997 108.857 65.323 117.1 41.8286 105.57Z" fill="black"/>
<path d="M32.0291 27.7457L31.6562 27.1763C33.3373 26.0772 35.0876 25.0877 36.896 24.2141L37.1943 24.8241C35.4099 25.6828 33.6844 26.6588 32.0291 27.7457ZM42.2714 22.7296L42.0477 22.0924C50.1161 19.3622 58.7442 18.7186 67.1283 20.2215L67.013 20.8994C58.7432 19.4173 50.2331 20.0468 42.2714 22.7296Z" fill="#CE352F"/>
<path d="M18.5772 45.4171C29.2262 23.7258 56.8962 15.4831 80.3905 27.0134C103.885 38.5437 114.283 65.4747 103.648 87.166C93.0122 108.857 65.3219 117.114 41.8275 105.583C18.3332 94.053 7.92813 67.1084 18.5772 45.4171ZM93.9273 82.3939C102.136 65.6645 94.1103 44.8748 75.9845 35.9814C57.8587 27.088 36.5064 33.453 28.2976 50.2163C20.0888 66.9796 28.1213 87.7354 46.2403 96.6288C64.3593 105.522 85.7049 99.164 93.9273 82.3939Z" fill="#CE352F"/>
<path d="M143.704 102.539L140.314 109.399C140.16 109.713 139.944 109.994 139.679 110.223C139.415 110.452 139.107 110.626 138.773 110.734C138.44 110.842 138.089 110.883 137.74 110.852C137.391 110.822 137.052 110.722 136.742 110.558L93.1562 87.6061L97.6097 78.5771L142.429 99.0076C142.748 99.1518 143.035 99.3585 143.273 99.6155C143.511 99.8725 143.694 100.175 143.813 100.504C143.932 100.833 143.984 101.183 143.965 101.533C143.946 101.882 143.857 102.225 143.704 102.539Z" fill="#CE352F"/>
<path opacity="0.1" d="M94.5533 82.6989C102.925 65.6509 94.7431 44.468 76.2513 35.4051C57.7595 26.3422 36.0208 32.8293 27.6493 49.8773C19.2778 66.9253 27.4731 88.1149 45.9513 97.1778C64.4296 106.241 86.1751 99.7672 94.5466 82.6989" fill="white"/>
<path opacity="0.1" d="M76.2723 35.3911C71.7193 33.1486 66.7794 31.798 61.7188 31.4121L24.7826 59.0482C24.0523 63.8018 24.3552 68.657 25.6706 73.2831L76.2723 35.3911Z" fill="white"/>
</g>
<defs>
<clipPath id="clip0_948_36961">
<rect width="211.49" height="202" fill="white"/>
</clipPath>
</defs>
</svg>
