<svg width="113" height="204" viewBox="0 0 113 204" fill="none" xmlns="http://www.w3.org/2000/svg">
<path d="M103.447 0.000560099H26.4725C23.8323 0.0439633 21.3032 1.06987 19.3789 2.87794C17.4545 4.68602 16.2732 7.14643 16.0656 9.77874L4.09368 194.079C3.99614 195.334 4.16088 196.596 4.57744 197.784C4.99399 198.971 5.65324 200.06 6.51322 200.979C7.37321 201.898 8.4151 202.628 9.57259 203.122C10.7301 203.617 11.9779 203.865 13.2365 203.851H90.238C92.8775 203.809 95.4067 202.785 97.3312 200.978C99.2556 199.171 100.437 196.711 100.645 194.079L109.233 61.6125C109.597 61.4852 109.918 61.2553 110.155 60.9504C110.392 60.6454 110.536 60.2785 110.57 59.8936L112.109 36.1905C112.135 35.8223 112.042 35.4553 111.841 35.1452C111.641 34.835 111.345 34.5986 110.998 34.4717L112.597 9.77874C112.694 8.52294 112.529 7.26059 112.112 6.072C111.696 4.8834 111.036 3.7946 110.175 2.87486C109.315 1.95512 108.272 1.22459 107.114 0.729743C105.955 0.234895 104.707 -0.0134326 103.447 0.000560099Z" fill="#24CB3F"/>
<path d="M9.83204 47.7206H11.3436C11.8113 47.7122 12.2592 47.5303 12.6003 47.2102C12.9415 46.89 13.1515 46.4546 13.1895 45.9883L13.8584 36.0898C13.875 35.8671 13.8453 35.6433 13.7709 35.4327C13.6966 35.2221 13.5793 35.0293 13.4265 34.8664C13.2737 34.7035 13.0887 34.5742 12.8833 34.4866C12.6778 34.399 12.4564 34.355 12.2331 34.3575H10.7283C10.2601 34.3644 9.81134 34.5458 9.4699 34.8662C9.12846 35.1866 8.91892 35.623 8.88231 36.0898L8.21349 45.9883C8.19685 46.2105 8.22643 46.4337 8.30037 46.6438C8.37431 46.8539 8.491 47.0465 8.64309 47.2092C8.79517 47.372 8.97935 47.5015 9.18398 47.5895C9.38862 47.6775 9.60928 47.7221 9.83204 47.7206Z" fill="#24CB3F"/>
<path d="M8.68943 65.3925H10.1943C10.6638 65.3841 11.1134 65.2014 11.4558 64.8801C11.7981 64.5587 12.0088 64.1216 12.0469 63.6535L12.7157 53.7616C12.7324 53.5389 12.7027 53.3152 12.6283 53.1046C12.554 52.894 12.4367 52.7012 12.2839 52.5383C12.1311 52.3754 11.9461 52.2461 11.7407 52.1585C11.5352 52.0709 11.3138 52.0269 11.0905 52.0294H9.58566C9.11677 52.0362 8.66721 52.2173 8.32468 52.5376C7.98215 52.8579 7.77122 53.2943 7.73302 53.7616L7.06419 63.6535C7.04548 63.877 7.07379 64.1019 7.14731 64.3138C7.22083 64.5256 7.33793 64.7197 7.49105 64.8835C7.64417 65.0474 7.82992 65.1773 8.03632 65.265C8.24273 65.3526 8.46521 65.3961 8.68943 65.3925Z" fill="#24CB3F"/>
<path d="M86.1449 203.851H9.17008C7.91145 203.865 6.66369 203.617 5.50619 203.122C4.34869 202.628 3.3068 201.898 2.44682 200.979C1.58684 200.059 0.927589 198.971 0.511032 197.784C0.094476 196.596 -0.0702693 195.334 0.0272749 194.079L11.9724 9.77867C12.1817 7.14578 13.3644 4.6853 15.2898 2.87736C17.2152 1.06942 19.7452 0.043749 22.386 0.0004882H99.3541C100.613 -0.0125696 101.861 0.236445 103.018 0.731707C104.176 1.22697 105.218 1.95764 106.078 2.87728C106.938 3.79691 107.597 4.88539 108.013 6.07352C108.43 7.26165 108.594 8.52344 108.497 9.77867L96.5518 194.079C96.344 196.711 95.1625 199.171 93.238 200.978C91.3135 202.785 88.7844 203.809 86.1449 203.851Z" fill="#263238"/>
<path opacity="0.2" d="M52.8899 196.015C55.5864 193.405 55.7895 189.24 53.3436 186.714C50.8978 184.187 46.7291 184.255 44.0327 186.865C41.3363 189.476 41.1331 193.64 43.579 196.167C46.0249 198.693 50.1935 198.625 52.8899 196.015Z" fill="white"/>
<path d="M93.1002 179.926H5.59812C5.30015 179.926 5.00539 179.865 4.73205 179.746C4.45872 179.627 4.21261 179.454 4.00891 179.237C3.80522 179.019 3.64827 178.762 3.54774 178.482C3.44722 178.201 3.40526 177.903 3.42445 177.606L13.6641 19.5494C13.7093 19.0035 13.9578 18.4945 14.3603 18.123C14.7628 17.7514 15.29 17.5444 15.8378 17.543H103.347C103.645 17.5433 103.939 17.6046 104.213 17.7233C104.486 17.8419 104.732 18.0154 104.936 18.2328C105.139 18.4503 105.296 18.7073 105.397 18.9878C105.497 19.2683 105.539 19.5664 105.52 19.8638L95.2738 177.886C95.2382 178.439 94.9938 178.957 94.5901 179.336C94.1864 179.715 93.6538 179.926 93.1002 179.926Z" fill="white"/>
<path opacity="0.2" d="M68.685 117.629C78.4728 108.154 79.2095 93.0375 70.3304 83.8654C61.4513 74.6933 46.3188 74.939 36.531 84.4141C26.7432 93.8892 26.0065 109.006 34.8856 118.178C43.7647 127.35 58.8972 127.104 68.685 117.629Z" fill="#24CB3F"/>
<path opacity="0.2" d="M50.2423 137.851C29.9302 137.851 14.4737 121.325 15.7912 101.013C17.1088 80.7004 34.6989 64.1738 55.0177 64.1738C75.3365 64.1738 90.7863 80.7004 89.4687 101.013C88.1512 121.325 70.5344 137.851 50.2423 137.851ZM54.9241 64.8427C34.9798 64.8427 17.7041 81.0683 16.4132 101.013C15.1224 120.957 30.2913 137.183 50.2356 137.183C70.1799 137.183 87.4556 120.957 88.7531 101.013C90.0506 81.0683 74.8951 64.8427 54.9241 64.8427Z" fill="#24CB3F"/>
<path d="M46.8972 112.592L44.8908 108.719C40.5434 100.285 30.5311 92.7477 27.0332 90.554L30.3372 85.6114C34.4772 88.2064 42.7505 94.6338 47.9406 102.272C57.5382 90.9018 71.1019 79.1907 89.2605 66.5566L92.3571 71.2384C72.9613 84.7352 59.0029 97.075 49.7197 108.967L46.8972 112.592Z" fill="#24CB3F"/>
<path opacity="0.2" d="M45.9511 10.5205C47.0418 9.46459 47.1222 7.77811 46.1305 6.75368C45.1388 5.72925 43.4506 5.7548 42.3598 6.81073C41.269 7.86666 41.1887 9.55312 42.1804 10.5776C43.1721 11.602 44.8603 11.5765 45.9511 10.5205Z" fill="white"/>
<path opacity="0.2" d="M53.527 6.00017H75.6583C76.0023 5.99615 76.3433 6.06409 76.6595 6.19964C76.9757 6.33518 77.2601 6.53534 77.4943 6.78725C77.7286 7.03916 77.9076 7.33726 78.0199 7.66243C78.1322 7.9876 78.1753 8.33266 78.1464 8.67546C78.0915 9.39437 77.7705 10.067 77.246 10.5617C76.7216 11.0565 76.0314 11.3379 75.3106 11.3507H53.1859C52.8419 11.3537 52.5011 11.285 52.1851 11.1492C51.8691 11.0134 51.5848 10.8133 51.3502 10.5618C51.1156 10.3102 50.9359 10.0126 50.8224 9.68787C50.709 9.36314 50.6643 9.01838 50.6912 8.67546C50.746 7.95655 51.067 7.28394 51.5915 6.78917C52.1159 6.2944 52.8061 6.01307 53.527 6.00017Z" fill="white"/>
</svg>
