<svg width="253" height="163" viewBox="0 0 253 163" fill="none" xmlns="http://www.w3.org/2000/svg">
<path d="M2.70243 68.8511C2.59289 68.8516 2.48714 68.8111 2.406 68.7375C2.32486 68.6639 2.2742 68.5626 2.26401 68.4535L0.000580674 41.2311C-0.00516723 41.1207 0.0319313 41.0125 0.10413 40.9289C0.17633 40.8453 0.278041 40.7928 0.388013 40.7824C0.502721 40.774 0.616172 40.8109 0.703906 40.8853C0.79164 40.9596 0.846628 41.0655 0.857013 41.1801L3.12045 68.4025C3.12895 68.5172 3.09203 68.6307 3.01764 68.7184C2.94326 68.8061 2.83738 68.8611 2.72282 68.8715L2.70243 68.8511Z" fill="#DB5D57"/>
<path d="M4.04934 85.0208C3.9398 85.0213 3.83405 84.9808 3.75291 84.9072C3.67177 84.8336 3.62112 84.7323 3.61094 84.6232L2.92782 76.3851C2.92223 76.328 2.92817 76.2704 2.94527 76.2157C2.96237 76.1609 2.99028 76.1102 3.02737 76.0664C3.06446 76.0227 3.10995 75.9868 3.16116 75.961C3.21236 75.9352 3.26823 75.9199 3.32545 75.9161C3.38252 75.9105 3.44015 75.9164 3.49489 75.9335C3.54962 75.9506 3.60037 75.9786 3.64411 76.0157C3.68785 76.0527 3.7237 76.0982 3.74953 76.1494C3.77535 76.2006 3.79063 76.2565 3.79445 76.3137L4.47757 84.5518C4.48606 84.6665 4.44913 84.78 4.37475 84.8677C4.30036 84.9555 4.19449 85.0104 4.07994 85.0208H4.04934Z" fill="#DB5D57"/>
<path d="M233.42 162.489H22.8999C20.2476 162.437 17.7064 161.414 15.7578 159.614C13.8092 157.814 12.5885 155.361 12.327 152.721L0.469415 10.1961C0.342717 8.95121 0.48084 7.69361 0.874716 6.5059C1.26859 5.31818 1.90931 4.22724 2.75477 3.30475C3.60023 2.38226 4.6313 1.64908 5.78025 1.15339C6.9292 0.657694 8.17002 0.410709 9.42121 0.428646H219.931C222.585 0.480345 225.127 1.50294 227.077 3.3029C229.028 5.10286 230.25 7.55531 230.514 10.1961L242.372 152.701C242.5 153.947 242.363 155.206 241.97 156.396C241.577 157.585 240.937 158.678 240.091 159.603C239.246 160.527 238.214 161.262 237.064 161.759C235.915 162.257 234.673 162.505 233.42 162.489Z" fill="white"/>
<path d="M233.42 162.896H22.8993C20.1435 162.852 17.5007 161.794 15.4753 159.924C13.4499 158.055 12.1838 155.505 11.9186 152.762L0.0610048 10.2468C-0.0587363 8.94652 0.0943403 7.63553 0.510434 6.39779C0.926527 5.16004 1.59647 4.02281 2.47738 3.05888C3.35384 2.08858 4.42548 1.3145 5.62206 0.787369C6.81864 0.260243 8.11312 -0.00801645 9.42063 0.000182422H219.931C222.698 0.0441047 225.351 1.10961 227.38 2.99175C229.409 4.8739 230.67 7.43977 230.922 10.1959L242.769 152.701C242.9 154 242.755 155.313 242.343 156.553C241.931 157.792 241.261 158.931 240.378 159.893C239.496 160.856 238.419 161.621 237.22 162.139C236.021 162.656 234.726 162.914 233.42 162.896ZM9.42063 0.856615C8.22386 0.837177 7.03657 1.07184 5.93718 1.54511C4.83778 2.01837 3.85129 2.71947 3.04285 3.60212C2.2344 4.48476 1.62238 5.52887 1.24722 6.66548C0.872061 7.8021 0.742286 9.00538 0.866464 10.1959L12.724 152.691C12.9762 155.234 14.1542 157.595 16.0341 159.327C17.9139 161.058 20.3644 162.038 22.9197 162.081H233.42C234.614 162.098 235.798 161.863 236.894 161.39C237.991 160.918 238.975 160.218 239.782 159.338C240.589 158.458 241.201 157.417 241.577 156.284C241.953 155.15 242.084 153.95 241.964 152.762L230.106 10.2468C229.856 7.70284 228.679 5.33979 226.798 3.60804C224.918 1.8763 222.466 0.896933 219.91 0.856615H9.42063Z" fill="#DB5D57"/>
<path d="M219.931 0.448148H9.42111C8.17182 0.430527 6.9329 0.677029 5.7855 1.1715C4.63809 1.66598 3.60809 2.39726 2.76296 3.31747C1.91783 4.23768 1.27663 5.32606 0.881366 6.5113C0.4861 7.69655 0.345684 8.95192 0.469314 10.1952H230.514C230.246 7.55808 229.021 5.11055 227.071 3.31478C225.121 1.519 222.581 0.499282 219.931 0.448148Z" fill="#DB5D57"/>
<path d="M14.3456 5.33326C14.3746 5.60195 14.3461 5.87372 14.262 6.13056C14.1779 6.38739 14.0402 6.62341 13.858 6.82298C13.6758 7.02255 13.4532 7.18111 13.2051 7.28813C12.9569 7.39516 12.6889 7.44821 12.4187 7.44377C11.8459 7.43168 11.2974 7.21034 10.8766 6.82152C10.4558 6.4327 10.192 5.9033 10.1348 5.33326C10.1075 5.06489 10.1372 4.7938 10.2219 4.53768C10.3066 4.28157 10.4444 4.04622 10.6263 3.84702C10.8082 3.64781 11.03 3.48924 11.2774 3.38166C11.5248 3.27409 11.7921 3.21994 12.0618 3.22276C12.6359 3.2304 13.1869 3.45023 13.6086 3.83991C14.0303 4.22958 14.2928 4.76153 14.3456 5.33326Z" fill="white"/>
<path d="M22.9103 5.33326C22.9393 5.60195 22.9108 5.87372 22.8267 6.13056C22.7426 6.38739 22.6049 6.62341 22.4227 6.82298C22.2405 7.02255 22.0179 7.18111 21.7698 7.28813C21.5216 7.39516 21.2535 7.44821 20.9833 7.44377C20.4177 7.42195 19.879 7.19626 19.4668 6.80836C19.0545 6.42046 18.7965 5.89652 18.7403 5.33326C18.713 5.06489 18.7427 4.7938 18.8274 4.53768C18.9121 4.28157 19.0499 4.04622 19.2317 3.84702C19.4136 3.64781 19.6355 3.48924 19.8829 3.38166C20.1302 3.27409 20.3975 3.21994 20.6673 3.22276C21.2343 3.24028 21.7753 3.46452 22.1885 3.85325C22.6016 4.24199 22.8583 4.76837 22.9103 5.33326Z" fill="white"/>
<path d="M31.4745 5.33326C31.5035 5.60195 31.475 5.87372 31.3909 6.13056C31.3068 6.38739 31.1691 6.62341 30.9869 6.82298C30.8047 7.02255 30.5821 7.18111 30.334 7.28813C30.0858 7.39516 29.8178 7.44821 29.5476 7.44377C28.9748 7.43168 28.4263 7.21034 28.0055 6.82152C27.5848 6.4327 27.3209 5.9033 27.2637 5.33326C27.2365 5.06489 27.2661 4.7938 27.3508 4.53768C27.4355 4.28157 27.5733 4.04622 27.7552 3.84702C27.9371 3.64781 28.1589 3.48924 28.4063 3.38166C28.6537 3.27409 28.921 3.21994 29.1907 3.22276C29.7648 3.2304 30.3158 3.45023 30.7375 3.83991C31.1592 4.22958 31.4217 4.76153 31.4745 5.33326Z" fill="white"/>
<path d="M215.148 143.809H38.1101C36.0014 143.769 33.9804 142.958 32.4301 141.528C30.8798 140.098 29.908 138.149 29.6987 136.05L21.379 36.7032C21.2796 35.7124 21.391 34.7118 21.706 33.7671C22.021 32.8225 22.5323 31.9552 23.2065 31.2223C23.8806 30.4894 24.7022 29.9075 25.6174 29.5149C26.5325 29.1223 27.5203 28.9278 28.516 28.9443H205.584C207.693 28.9838 209.714 29.7955 211.264 31.2255C212.814 32.6555 213.786 34.6045 213.996 36.7032L222.264 136.101C222.356 137.086 222.239 138.079 221.922 139.016C221.605 139.953 221.094 140.813 220.423 141.54C219.752 142.267 218.935 142.845 218.027 143.235C217.118 143.626 216.137 143.822 215.148 143.809Z" fill="#F0F0F0"/>
<path opacity="0.1" d="M160.378 46.298L105.525 112.346C103.801 114.419 102.641 116.903 102.156 119.556C101.671 122.209 101.878 124.942 102.758 127.492C103.637 130.041 105.158 132.321 107.176 134.112C109.193 135.902 111.637 137.142 114.273 137.712L203.281 156.952C206.065 157.555 208.961 157.39 211.658 156.473C214.355 155.556 216.751 153.923 218.59 151.747C220.429 149.572 221.642 146.937 222.097 144.125C222.552 141.313 222.233 138.43 221.175 135.785L187.05 50.4884C186.042 47.9574 184.392 45.7325 182.263 44.0327C180.134 42.3328 177.599 41.2165 174.908 40.7937C172.216 40.3708 169.461 40.656 166.914 41.6211C164.366 42.5862 162.113 44.1981 160.378 46.298Z" fill="#263238"/>
<path opacity="0.1" d="M38.2765 55.5584L19.1698 107.057C18.5976 108.629 18.4328 110.321 18.6907 111.974C18.9487 113.627 19.6209 115.188 20.6449 116.511C21.6689 117.834 23.0112 118.877 24.5468 119.541C26.0823 120.206 27.7611 120.471 29.4267 120.311L85.2276 114.836C87.0033 114.663 88.6992 114.013 90.1364 112.956C91.5736 111.899 92.6988 110.473 93.3932 108.83C94.0875 107.186 94.3253 105.386 94.0815 103.618C93.8376 101.851 93.1212 100.182 92.0077 98.7881L55.3033 52.8056C54.2068 51.4369 52.7666 50.3837 51.13 49.7536C49.4933 49.1235 47.7188 48.9389 45.9875 49.2188C44.2562 49.4987 42.6302 50.2331 41.2755 51.3468C39.9208 52.4606 38.8859 53.9139 38.2765 55.5584Z" fill="#263238"/>
<path d="M179.302 29.6716L128.018 104.1C126.416 106.425 125.438 109.122 125.176 111.933C124.915 114.744 125.379 117.575 126.525 120.155C127.671 122.735 129.46 124.978 131.721 126.669C133.981 128.36 136.638 129.443 139.437 129.814L233.706 142.364C236.671 142.759 239.687 142.341 242.432 141.153C245.178 139.966 247.548 138.055 249.291 135.624C251.034 133.193 252.083 130.334 252.326 127.353C252.569 124.372 251.997 121.381 250.672 118.7L207.687 31.6904C206.411 29.1127 204.483 26.9134 202.095 25.3106C199.707 23.7079 196.941 22.7573 194.072 22.5533C191.203 22.3492 188.331 22.8988 185.74 24.1475C183.149 25.3961 180.93 27.3005 179.302 29.6716Z" fill="#DB5D57"/>
<path d="M141.669 123.163C139.967 122.931 138.348 122.283 136.957 121.274C135.566 120.265 134.446 118.928 133.696 117.382C132.924 115.92 132.56 114.277 132.645 112.626C132.729 110.975 133.258 109.377 134.175 108.002L185.592 33.3493C186.522 32.0177 187.808 30.9748 189.302 30.34C190.797 29.7053 192.441 29.5044 194.044 29.7604C195.748 29.9902 197.367 30.6385 198.759 31.6473C200.15 32.6561 201.27 33.994 202.017 35.5414L245.084 122.765C245.856 124.227 246.22 125.87 246.135 127.521C246.051 129.172 245.522 130.77 244.605 132.145C243.677 133.48 242.392 134.525 240.897 135.162C239.402 135.799 237.757 136.001 236.153 135.744L141.669 123.163Z" fill="white"/>
<path d="M189.67 56.1486L195.675 56.9438C197.553 57.2087 199.267 58.1553 200.491 59.6032C201.715 61.0512 202.364 62.8991 202.312 64.7945L201.905 72.6248C201.895 72.9087 201.864 73.1916 201.813 73.471L197.541 97.074C197.235 98.7007 196.306 100.144 194.952 101.096C193.598 102.048 191.926 102.434 190.292 102.172C188.557 101.925 186.957 101.099 185.752 99.827C184.546 98.5551 183.807 96.9128 183.654 95.1674L181.931 70.7794C181.911 70.4976 181.911 70.2148 181.931 69.9331L182.329 62.0926C182.372 61.2019 182.603 60.3304 183.006 59.535C183.409 58.7396 183.976 58.0384 184.669 57.4773C185.362 56.9161 186.165 56.5077 187.027 56.2787C187.889 56.0497 188.79 56.0054 189.67 56.1486ZM189.191 108.717L190.822 108.932C192.502 109.169 194.037 110.016 195.133 111.311C196.229 112.607 196.81 114.26 196.766 115.956C196.73 116.756 196.526 117.54 196.166 118.255C195.806 118.97 195.299 119.601 194.678 120.107C194.057 120.612 193.336 120.981 192.562 121.188C191.789 121.395 190.98 121.436 190.19 121.309L188.558 121.085C186.879 120.85 185.345 120.005 184.248 118.711C183.152 117.417 182.57 115.765 182.614 114.07C182.649 113.27 182.852 112.486 183.212 111.769C183.571 111.053 184.078 110.422 184.699 109.916C185.321 109.41 186.042 109.042 186.817 108.835C187.591 108.629 188.4 108.588 189.191 108.717Z" fill="#DB5D57"/>
<path d="M57.993 41.0468L43.9127 94.4415C43.4881 96.064 43.4822 97.7678 43.8956 99.3932C44.3089 101.019 45.128 102.512 46.2762 103.735C47.4243 104.958 48.864 105.869 50.4603 106.383C52.0566 106.898 53.7573 106.998 55.4033 106.676L110.021 96.0219C111.754 95.6762 113.363 94.8735 114.682 93.697C116 92.5204 116.98 91.0127 117.52 89.33C118.059 87.6474 118.139 85.8511 117.751 84.1272C117.363 82.4033 116.522 80.8144 115.313 79.5253L74.8158 36.7544C73.6012 35.4638 72.063 34.5221 70.3612 34.0273C68.6594 33.5325 66.8561 33.5026 65.1389 33.9408C63.4216 34.3789 61.8531 35.2692 60.5964 36.5188C59.3397 37.7685 58.4407 39.332 57.993 41.0468Z" fill="#DB5D57"/>
<path d="M55.291 102.374C54.2882 102.556 53.2557 102.481 52.2896 102.156C51.3234 101.832 50.455 101.269 49.7649 100.519C49.053 99.7962 48.5385 98.903 48.2707 97.9247C48.0029 96.9464 47.9908 95.9157 48.2356 94.9314L62.3464 41.3939C62.5911 40.4585 63.0967 39.6118 63.8044 38.9529C64.5121 38.294 65.3926 37.8499 66.3431 37.6725C67.3468 37.4932 68.3795 37.5702 69.3455 37.8964C70.3116 38.2225 71.1796 38.7873 71.8692 39.5383L112.509 82.3601C113.222 83.0821 113.738 83.9748 114.007 84.953C114.277 85.9312 114.291 86.9621 114.049 87.9474C113.802 88.881 113.296 89.7254 112.588 90.3824C111.881 91.0394 111.001 91.482 110.052 91.6586L55.291 102.374Z" fill="white"/>
<path d="M68.9965 53.9666L72.4732 53.2835C73.5958 53.1023 74.7457 53.3426 75.7018 53.958C76.6579 54.5735 77.3527 55.5207 77.6527 56.6175L78.8965 61.2769C78.9436 61.448 78.9811 61.6216 79.0087 61.7969L81.2211 76.4684C81.3936 77.4562 81.169 78.4721 80.5961 79.2951C80.0233 80.118 79.1486 80.6815 78.1624 80.8628C77.1283 81.0345 76.0666 80.8469 75.1539 80.3312C74.2412 79.8155 73.5327 79.0028 73.1462 78.0284L67.4978 64.0807C67.4292 63.9181 67.3713 63.7512 67.3244 63.5811L66.0398 58.9115C65.8727 58.3924 65.8183 57.8436 65.8803 57.3019C65.9422 56.7601 66.1189 56.2378 66.3988 55.7697C66.6786 55.3017 67.0551 54.8988 67.5031 54.5878C67.951 54.2769 68.4602 54.0651 68.9965 53.9666ZM78.8354 84.8391L79.7835 84.6556C80.7891 84.4814 81.8233 84.6906 82.6822 85.2417C83.541 85.7929 84.162 86.646 84.4226 87.6327C84.5663 88.0922 84.6115 88.5768 84.5553 89.0549C84.4992 89.5331 84.3428 89.994 84.0966 90.4076C83.8503 90.8213 83.5196 91.1784 83.126 91.4557C82.7325 91.7329 82.2849 91.9242 81.8125 92.0168L80.8643 92.2004C79.8601 92.3749 78.827 92.1672 77.9684 91.6181C77.1098 91.0689 76.4879 90.2182 76.2253 89.2334C76.0816 88.7733 76.0363 88.2881 76.0924 87.8093C76.1485 87.3306 76.3047 86.8689 76.5508 86.4545C76.797 86.04 77.1276 85.682 77.5212 85.4037C77.9148 85.1254 78.3626 84.933 78.8354 84.8391Z" fill="#DB5D57"/>
</svg>
