<svg width="21" height="21" viewBox="0 0 21 21" fill="none" xmlns="http://www.w3.org/2000/svg">
<path d="M10.5 1.75C5.67875 1.75 1.75 5.67875 1.75 10.5C1.75 15.3212 5.67875 19.25 10.5 19.25C15.3212 19.25 19.25 15.3212 19.25 10.5C19.25 5.67875 15.3212 1.75 10.5 1.75ZM9.84375 7C9.84375 6.64125 10.1412 6.34375 10.5 6.34375C10.8587 6.34375 11.1562 6.64125 11.1562 7V11.375C11.1562 11.7337 10.8587 12.0312 10.5 12.0312C10.1412 12.0312 9.84375 11.7337 9.84375 11.375V7ZM11.305 14.3325C11.2612 14.4462 11.2 14.5337 11.1212 14.6212C11.0337 14.7 10.9375 14.7612 10.8325 14.805C10.7275 14.8487 10.6137 14.875 10.5 14.875C10.3862 14.875 10.2725 14.8487 10.1675 14.805C10.0625 14.7612 9.96625 14.7 9.87875 14.6212C9.8 14.5337 9.73875 14.4462 9.695 14.3325C9.65125 14.2275 9.625 14.1137 9.625 14C9.625 13.8862 9.65125 13.7725 9.695 13.6675C9.73875 13.5625 9.8 13.4662 9.87875 13.3787C9.96625 13.3 10.0625 13.2387 10.1675 13.195C10.3775 13.1075 10.6225 13.1075 10.8325 13.195C10.9375 13.2387 11.0337 13.3 11.1212 13.3787C11.2 13.4662 11.2612 13.5625 11.305 13.6675C11.3487 13.7725 11.375 13.8862 11.375 14C11.375 14.1137 11.3487 14.2275 11.305 14.3325Z" fill="#D43D35"/>
</svg>
