<svg width="28" height="28" viewBox="0 0 28 28" fill="none" xmlns="http://www.w3.org/2000/svg">
<path d="M14.0007 26.5417C13.3007 26.5417 12.6124 26.3784 12.0524 26.0634L6.53404 22.8784C4.24737 21.3384 4.0957 21.0584 4.0957 18.6434V12.8567C4.0957 10.4417 4.24737 10.1617 6.48737 8.65669L12.064 5.43669C13.1724 4.79503 14.8407 4.79503 15.949 5.43669L21.4674 8.62169C23.754 10.1617 23.9057 10.4417 23.9057 12.8567V18.6434C23.9057 21.0584 23.754 21.3384 21.514 22.8434L15.9374 26.0634C15.389 26.39 14.689 26.5417 14.0007 26.5417ZM14.0007 6.70836C13.604 6.70836 13.2074 6.79003 12.9274 6.95336L7.40904 10.1384C5.8457 11.2 5.8457 11.2 5.8457 12.8567V18.6434C5.8457 20.3 5.8457 20.3 7.46737 21.3967L12.939 24.5467C13.499 24.8734 14.514 24.8734 15.074 24.5467L20.5924 21.3617C22.1557 20.3 22.1557 20.3 22.1557 18.6434V12.8567C22.1557 11.2 22.1557 11.2 20.534 10.1034L15.0624 6.95336C14.794 6.79003 14.3974 6.70836 14.0007 6.70836Z" fill="#821C18"/>
<path d="M20.4173 9.77665C19.939 9.77665 19.5423 9.37998 19.5423 8.90165V5.83331C19.5423 3.98998 18.7607 3.20831 16.9173 3.20831H11.084C9.24065 3.20831 8.45898 3.98998 8.45898 5.83331V8.81998C8.45898 9.29831 8.06232 9.69498 7.58398 9.69498C7.10565 9.69498 6.70898 9.30998 6.70898 8.81998V5.83331C6.70898 3.00998 8.26065 1.45831 11.084 1.45831H16.9173C19.7407 1.45831 21.2923 3.00998 21.2923 5.83331V8.90165C21.2923 9.37998 20.8957 9.77665 20.4173 9.77665Z" fill="#821C18"/>
<path d="M15.9016 20.5683C15.6566 20.5683 15.4 20.5217 15.1433 20.4167L14 19.9733L12.8566 20.4283C12.2383 20.6733 11.6083 20.615 11.1416 20.2767C10.675 19.9383 10.43 19.355 10.465 18.69L10.535 17.465L9.75328 16.52C9.33328 15.995 9.19328 15.3883 9.37995 14.8283C9.55495 14.28 10.0333 13.86 10.675 13.6967L11.865 13.3933L12.53 12.355C13.2416 11.235 14.77 11.235 15.4816 12.355L16.1466 13.3933L17.3366 13.6967C17.9783 13.86 18.4566 14.28 18.6316 14.8283C18.8066 15.3767 18.6666 15.995 18.2466 16.5083L17.465 17.4533L17.535 18.6783C17.57 19.3433 17.325 19.915 16.8583 20.265C16.5783 20.4633 16.2516 20.5683 15.9016 20.5683ZM11.1066 15.4L11.8883 16.345C12.1566 16.66 12.3083 17.1617 12.285 17.57L12.215 18.795L13.3583 18.34C13.7433 18.1883 14.2566 18.1883 14.6416 18.34L15.785 18.795L15.715 17.57C15.6916 17.1617 15.8433 16.6717 16.1116 16.345L16.8933 15.4L15.7033 15.0967C15.3066 14.9917 14.8866 14.6883 14.665 14.35L14.0116 13.3233L13.3466 14.35C13.125 14.7 12.705 15.0033 12.3083 15.1083L11.1066 15.4Z" fill="#821C18"/>
</svg>
