<svg width="20" height="20" viewBox="0 0 20 20" fill="none" xmlns="http://www.w3.org/2000/svg">
<path d="M9.99993 13.6083C8.00827 13.6083 6.3916 11.9917 6.3916 10C6.3916 8.00833 8.00827 6.39166 9.99993 6.39166C11.9916 6.39166 13.6083 8.00833 13.6083 10C13.6083 11.9917 11.9916 13.6083 9.99993 13.6083ZM9.99993 7.64166C8.69993 7.64166 7.6416 8.7 7.6416 10C7.6416 11.3 8.69993 12.3583 9.99993 12.3583C11.2999 12.3583 12.3583 11.3 12.3583 10C12.3583 8.7 11.2999 7.64166 9.99993 7.64166Z" fill="#292D32"/>
<path d="M10.0004 17.5167C6.86706 17.5167 3.90872 15.6833 1.87539 12.5C0.992057 11.125 0.992057 8.88334 1.87539 7.5C3.91706 4.31667 6.87539 2.48334 10.0004 2.48334C13.1254 2.48334 16.0837 4.31667 18.1171 7.5C19.0004 8.875 19.0004 11.1167 18.1171 12.5C16.0837 15.6833 13.1254 17.5167 10.0004 17.5167ZM10.0004 3.73334C7.30872 3.73334 4.73372 5.35 2.93372 8.175C2.30872 9.15 2.30872 10.85 2.93372 11.825C4.73372 14.65 7.30872 16.2667 10.0004 16.2667C12.6921 16.2667 15.2671 14.65 17.0671 11.825C17.6921 10.85 17.6921 9.15 17.0671 8.175C15.2671 5.35 12.6921 3.73334 10.0004 3.73334Z" fill="#292D32"/>
</svg>
