<svg width="28" height="28" viewBox="0 0 28 28" fill="none" xmlns="http://www.w3.org/2000/svg">
<path d="M4.08398 21.875C3.60565 21.875 3.20898 21.4783 3.20898 21V8.16665C3.20898 3.02165 4.77232 1.45831 9.91732 1.45831H18.084C23.229 1.45831 24.7923 3.02165 24.7923 8.16665V19.8333C24.7923 20.02 24.7923 20.195 24.7807 20.3816C24.7457 20.86 24.314 21.2333 23.8473 21.1983C23.369 21.1633 22.9957 20.7433 23.0307 20.265C23.0423 20.125 23.0423 19.9733 23.0423 19.8333V8.16665C23.0423 4.00165 22.2607 3.20831 18.084 3.20831H9.91732C5.74065 3.20831 4.95898 4.00165 4.95898 8.16665V21C4.95898 21.4783 4.56232 21.875 4.08398 21.875Z" fill="#821C18"/>
<path d="M19.834 26.5417H8.16732C5.43732 26.5417 3.20898 24.3133 3.20898 21.5833V20.825C3.20898 18.5033 5.09898 16.625 7.40898 16.625H23.9173C24.3957 16.625 24.7923 17.0217 24.7923 17.5V21.5833C24.7923 24.3133 22.564 26.5417 19.834 26.5417ZM7.40898 18.375C6.05565 18.375 4.95898 19.4717 4.95898 20.825V21.5833C4.95898 23.3567 6.39398 24.7917 8.16732 24.7917H19.834C21.6073 24.7917 23.0423 23.3567 23.0423 21.5833V18.375H7.40898Z" fill="#821C18"/>
<path d="M18.6673 9.04169H9.33398C8.85565 9.04169 8.45898 8.64502 8.45898 8.16669C8.45898 7.68835 8.85565 7.29169 9.33398 7.29169H18.6673C19.1457 7.29169 19.5423 7.68835 19.5423 8.16669C19.5423 8.64502 19.1457 9.04169 18.6673 9.04169Z" fill="#821C18"/>
<path d="M15.1673 13.125H9.33398C8.85565 13.125 8.45898 12.7283 8.45898 12.25C8.45898 11.7717 8.85565 11.375 9.33398 11.375H15.1673C15.6457 11.375 16.0423 11.7717 16.0423 12.25C16.0423 12.7283 15.6457 13.125 15.1673 13.125Z" fill="#821C18"/>
</svg>
