<svg width="24" height="25" viewBox="0 0 24 25" fill="none" xmlns="http://www.w3.org/2000/svg">
<path d="M12.0002 23.6876C11.3302 23.6876 10.6501 23.5176 10.0501 23.1676L4.11014 19.7376C2.91014 19.0376 2.16016 17.7476 2.16016 16.3576V9.51761C2.16016 8.12761 2.91014 6.83761 4.11014 6.13761L10.0501 2.70762C11.2501 2.00762 12.7402 2.00762 13.9502 2.70762L19.8902 6.13761C21.0902 6.83761 21.8401 8.12761 21.8401 9.51761V16.3576C21.8401 17.7476 21.0902 19.0376 19.8902 19.7376L13.9502 23.1676C13.3502 23.5176 12.6702 23.6876 12.0002 23.6876ZM12.0002 3.6876C11.5902 3.6876 11.1701 3.7976 10.8001 4.0076L4.86014 7.4376C4.12014 7.8676 3.66016 8.65761 3.66016 9.51761V16.3576C3.66016 17.2076 4.12014 18.0076 4.86014 18.4376L10.8001 21.8676C11.5401 22.2976 12.4602 22.2976 13.2002 21.8676L19.1402 18.4376C19.8802 18.0076 20.3401 17.2176 20.3401 16.3576V9.51761C20.3401 8.66761 19.8802 7.8676 19.1402 7.4376L13.2002 4.0076C12.8302 3.7976 12.4102 3.6876 12.0002 3.6876Z" fill="#D43D35"/>
<path d="M11.0902 16.6078C10.7302 16.6078 10.3902 16.5178 10.0802 16.3478C9.39023 15.9478 8.99023 15.1378 8.99023 14.1278V11.7278C8.99023 10.7178 9.39023 9.9078 10.0802 9.5078C10.7702 9.1078 11.6703 9.16778 12.5403 9.67778L14.6202 10.8778C15.4902 11.3778 16.0002 12.1278 16.0002 12.9278C16.0002 13.7278 15.5002 14.4678 14.6202 14.9778L12.5403 16.1778C12.0603 16.4678 11.5602 16.6078 11.0902 16.6078ZM11.1003 10.7578C11.0003 10.7578 10.9102 10.7778 10.8402 10.8178C10.6302 10.9378 10.5002 11.2778 10.5002 11.7378V14.1378C10.5002 14.5878 10.6302 14.9278 10.8402 15.0578C11.0502 15.1778 11.4102 15.1178 11.8002 14.8878L13.8802 13.6878C14.2702 13.4578 14.5002 13.1778 14.5002 12.9378C14.5002 12.6978 14.2702 12.4178 13.8802 12.1878L11.8002 10.9878C11.5402 10.8378 11.2903 10.7578 11.1003 10.7578Z" fill="#D43D35"/>
</svg>
