<svg width="21" height="21" viewBox="0 0 21 21" fill="none" xmlns="http://www.w3.org/2000/svg">
<path d="M7.24762 17.7321C13.8512 17.7321 17.4641 12.2555 17.4641 7.5147C17.4641 7.3607 17.4641 7.2067 17.4571 7.0527C18.1607 6.54286 18.7678 5.91175 19.25 5.18895C18.5934 5.47905 17.8976 5.67041 17.185 5.75683C17.9358 5.30733 18.4979 4.60062 18.767 3.76795C18.0613 4.1866 17.2888 4.48053 16.4832 4.63683C16.1479 4.27858 15.7426 3.99301 15.2925 3.79779C14.8423 3.60258 14.3568 3.50189 13.8661 3.50195C12.9135 3.50265 12.0001 3.88139 11.3264 4.55501C10.6528 5.22863 10.2741 6.14206 10.2734 7.0947C10.2734 7.3747 10.3084 7.6477 10.3644 7.9137C8.93628 7.84199 7.53923 7.47073 6.26394 6.82404C4.98864 6.17734 3.8636 5.26967 2.96187 4.15995C2.50362 4.95144 2.36373 5.88765 2.57061 6.77852C2.77748 7.66938 3.31561 8.44815 4.07575 8.9567C3.50619 8.93698 2.94927 8.78351 2.45 8.5087V8.5577C2.45077 9.38659 2.73764 10.1898 3.26214 10.8316C3.78664 11.4735 4.51662 11.9146 5.32875 12.0805C5.02097 12.1653 4.70302 12.2077 4.38375 12.2065C4.15187 12.2065 3.92787 12.1855 3.71 12.1435C3.93893 12.8573 4.38551 13.4815 4.98713 13.9288C5.58875 14.376 6.31524 14.6237 7.06475 14.6372C5.79298 15.6369 4.22167 16.1794 2.604 16.1772C2.317 16.1772 2.03 16.1632 1.75 16.1282C3.39212 17.1761 5.29964 17.7326 7.24762 17.7321Z" fill="#F8F9FB"/>
</svg>
