<svg width="28" height="28" viewBox="0 0 28 28" fill="none" xmlns="http://www.w3.org/2000/svg">
<path d="M14.0114 19.8333C13.0197 19.8333 12.0164 19.5766 11.2347 19.075L4.21138 14.49C2.90471 13.6383 2.12305 12.2033 2.12305 10.64C2.12305 9.07665 2.90471 7.64165 4.21138 6.78998L11.2464 2.21665C12.8097 1.20165 15.248 1.20165 16.7997 2.22831L23.788 6.81331C25.083 7.66498 25.8647 9.09998 25.8647 10.6516C25.8647 12.2033 25.083 13.6383 23.788 14.49L16.7997 19.075C16.018 19.5883 15.0147 19.8333 14.0114 19.8333ZM14.0114 3.20831C13.3464 3.20831 12.6814 3.35998 12.203 3.68665L5.17971 8.25998C4.36305 8.79665 3.88471 9.65998 3.88471 10.64C3.88471 11.62 4.35138 12.4833 5.17971 13.02L12.203 17.605C13.1714 18.235 14.8747 18.235 15.843 17.605L22.8314 13.02C23.648 12.4833 24.1147 11.62 24.1147 10.64C24.1147 9.65998 23.648 8.79665 22.8314 8.25998L15.843 3.67498C15.353 3.37165 14.688 3.20831 14.0114 3.20831Z" fill="#821C18"/>
<path d="M14 26.5417C13.4867 26.5417 12.9617 26.4717 12.5417 26.3317L8.82005 25.095C7.05838 24.5117 5.67005 22.5867 5.68171 20.7317L5.69338 15.26C5.69338 14.7817 6.09005 14.385 6.56838 14.385C7.04671 14.385 7.44338 14.7817 7.44338 15.26L7.43171 20.7317C7.43171 21.8283 8.34171 23.0883 9.38005 23.4383L13.1017 24.675C13.5684 24.8267 14.4317 24.8267 14.8984 24.675L18.62 23.4383C19.6584 23.0883 20.5684 21.8283 20.5684 20.7433V15.33C20.5684 14.8517 20.965 14.455 21.4434 14.455C21.9217 14.455 22.3184 14.8517 22.3184 15.33V20.7433C22.3184 22.5983 20.9417 24.5117 19.18 25.1067L15.4584 26.3433C15.0384 26.4717 14.5134 26.5417 14 26.5417Z" fill="#821C18"/>
<path d="M24.9668 18.375C24.4885 18.375 24.0918 17.9783 24.0918 17.5V10.5C24.0918 10.0217 24.4885 9.625 24.9668 9.625C25.4451 9.625 25.8418 10.0217 25.8418 10.5V17.5C25.8418 17.9783 25.4451 18.375 24.9668 18.375Z" fill="#821C18"/>
</svg>
