<svg width="28" height="28" viewBox="0 0 28 28" fill="none" xmlns="http://www.w3.org/2000/svg">
<path d="M18.6673 26.5417H9.33392C3.94392 26.5417 2.94059 24.0333 2.68392 21.595L1.80892 12.25C1.68059 11.025 1.64559 9.21666 2.85892 7.86332C3.90892 6.69666 5.64726 6.13666 8.16726 6.13666H19.8339C22.3656 6.13666 24.1039 6.70832 25.1423 7.86332C26.3556 9.21666 26.3206 11.025 26.1923 12.2617L25.3173 21.5833C25.0606 24.0333 24.0573 26.5417 18.6673 26.5417ZM8.16726 7.87499C6.19559 7.87499 4.84226 8.25999 4.15392 9.02999C3.58226 9.65999 3.39559 10.6283 3.54726 12.075L4.42226 21.42C4.62059 23.2633 5.12226 24.7917 9.33392 24.7917H18.6673C22.8673 24.7917 23.3806 23.2633 23.5789 21.4083L24.4539 12.0867C24.6056 10.6283 24.4189 9.65999 23.8473 9.02999C23.1589 8.25999 21.8056 7.87499 19.8339 7.87499H8.16726Z" fill="#821C18"/>
<path d="M18.6673 7.87498C18.189 7.87498 17.7923 7.47831 17.7923 6.99998V6.06665C17.7923 3.98998 17.7923 3.20831 14.934 3.20831H13.0673C10.209 3.20831 10.209 3.98998 10.209 6.06665V6.99998C10.209 7.47831 9.81232 7.87498 9.33398 7.87498C8.85565 7.87498 8.45898 7.47831 8.45898 6.99998V6.06665C8.45898 4.01331 8.45898 1.45831 13.0673 1.45831H14.934C19.5423 1.45831 19.5423 4.01331 19.5423 6.06665V6.99998C19.5423 7.47831 19.1457 7.87498 18.6673 7.87498Z" fill="#821C18"/>
<path d="M13.9993 19.5417C10.791 19.5417 10.791 17.5583 10.791 16.3683V15.1667C10.791 13.5217 11.1877 13.125 12.8327 13.125H15.166C16.811 13.125 17.2077 13.5217 17.2077 15.1667V16.3333C17.2077 17.5467 17.2077 19.5417 13.9993 19.5417ZM12.541 14.875C12.541 14.9683 12.541 15.0733 12.541 15.1667V16.3683C12.541 17.57 12.541 17.7917 13.9993 17.7917C15.4577 17.7917 15.4577 17.605 15.4577 16.3567V15.1667C15.4577 15.0733 15.4577 14.9683 15.4577 14.875C15.3643 14.875 15.2593 14.875 15.166 14.875H12.8327C12.7393 14.875 12.6343 14.875 12.541 14.875Z" fill="#821C18"/>
<path d="M16.3328 17.2317C15.9011 17.2317 15.5161 16.905 15.4694 16.4617C15.4111 15.9833 15.7494 15.54 16.2278 15.4817C19.3078 15.0967 22.2594 13.93 24.7444 12.1217C25.1294 11.83 25.6778 11.9233 25.9694 12.32C26.2494 12.705 26.1678 13.2533 25.7711 13.545C23.0411 15.5283 19.8211 16.8 16.4378 17.2317C16.4028 17.2317 16.3678 17.2317 16.3328 17.2317Z" fill="#821C18"/>
<path d="M11.6675 17.2433C11.6325 17.2433 11.5975 17.2433 11.5625 17.2433C8.36584 16.8817 5.25084 15.715 2.55584 13.8717C2.15918 13.6033 2.05418 13.055 2.32251 12.6583C2.59084 12.2617 3.13918 12.1567 3.53584 12.425C5.99751 14.105 8.83251 15.1667 11.7492 15.505C12.2275 15.5633 12.5775 15.995 12.5192 16.4733C12.4842 16.9167 12.1108 17.2433 11.6675 17.2433Z" fill="#821C18"/>
</svg>
