<svg width="21" height="21" viewBox="0 0 21 21" fill="none" xmlns="http://www.w3.org/2000/svg">
<path fill-rule="evenodd" clip-rule="evenodd" d="M10.5 1.74805C8.1235 1.74805 7.826 1.75855 6.89237 1.80055C5.96137 1.84342 5.32525 1.9913 4.76875 2.20742C4.18468 2.42691 3.65553 2.77121 3.21825 3.2163C2.77319 3.6536 2.42889 4.18274 2.20938 4.7668C1.99325 5.3233 1.84537 5.95942 1.8025 6.89042C1.75962 7.82405 1.75 8.12155 1.75 10.498C1.75 12.8745 1.75962 13.172 1.8025 14.1057C1.84537 15.0367 1.99325 15.6728 2.20938 16.2293C2.42891 16.8133 2.77321 17.3425 3.21825 17.7798C3.65557 18.2248 4.1847 18.5691 4.76875 18.7887C5.32525 19.0048 5.96137 19.1527 6.89237 19.1955C7.826 19.2375 8.1235 19.248 10.5 19.248C12.8765 19.248 13.174 19.2375 14.1076 19.1955C15.0386 19.1527 15.6747 19.0048 16.2312 18.7887C16.8153 18.5692 17.3444 18.2249 17.7817 17.7798C18.2268 17.3425 18.5711 16.8134 18.7906 16.2293C19.0067 15.6728 19.1546 15.0367 19.1975 14.1057C19.2395 13.172 19.25 12.8745 19.25 10.498C19.25 8.12155 19.2395 7.82405 19.1975 6.89042C19.1546 5.95942 19.0067 5.3233 18.7906 4.7668C18.5711 4.18274 18.2268 3.6536 17.7817 3.2163C17.3445 2.77121 16.8153 2.42691 16.2312 2.20742C15.6747 1.9913 15.0386 1.84342 14.1076 1.80055C13.174 1.75855 12.8765 1.74805 10.5 1.74805ZM10.5 3.3248C12.8362 3.3248 13.1127 3.33355 14.035 3.37555C14.889 3.41492 15.3519 3.55667 15.6607 3.67655C16.0685 3.8358 16.3607 4.02567 16.667 4.33105C16.9732 4.6373 17.1622 4.92955 17.3215 5.3373C17.4405 5.64617 17.584 6.10905 17.6225 6.96217C17.6645 7.8853 17.6732 8.16092 17.6732 10.498C17.6732 12.8343 17.6645 13.1108 17.6225 14.033C17.5831 14.887 17.4405 15.3499 17.3215 15.6588C17.1812 16.0389 16.9576 16.3827 16.667 16.665C16.3607 16.9713 16.0685 17.1603 15.6607 17.3195C15.3519 17.4385 14.889 17.582 14.0359 17.6205C13.1136 17.6625 12.8371 17.6713 10.5 17.6713C8.16375 17.6713 7.88637 17.6625 6.965 17.6205C6.111 17.5812 5.64812 17.4385 5.33925 17.3195C4.95914 17.1793 4.61529 16.9557 4.333 16.665C4.04238 16.3828 3.81873 16.0389 3.6785 15.6588C3.55862 15.3499 3.416 14.887 3.3775 14.0339C3.3355 13.1108 3.32675 12.8352 3.32675 10.498C3.32675 8.1618 3.3355 7.8853 3.3775 6.96305C3.41687 6.10905 3.55862 5.64617 3.6785 5.3373C3.83775 4.92955 4.02762 4.6373 4.333 4.33105C4.63925 4.0248 4.9315 3.8358 5.33925 3.67655C5.64812 3.55667 6.111 3.41405 6.96412 3.37555C7.88725 3.33355 8.16287 3.3248 10.5 3.3248ZM10.5 13.4144C9.72653 13.4144 8.98474 13.1072 8.43781 12.5602C7.89088 12.0133 7.58362 11.2715 7.58362 10.498C7.58362 9.72458 7.89088 8.98278 8.43781 8.43586C8.98474 7.88893 9.72653 7.58167 10.5 7.58167C11.2735 7.58167 12.0153 7.88893 12.5622 8.43586C13.1091 8.98278 13.4164 9.72458 13.4164 10.498C13.4164 11.2715 13.1091 12.0133 12.5622 12.5602C12.0153 13.1072 11.2735 13.4144 10.5 13.4144ZM10.5 6.00492C9.90995 6.00492 9.32569 6.12114 8.78055 6.34694C8.23542 6.57274 7.7401 6.9037 7.32288 7.32093C6.90565 7.73815 6.57469 8.23347 6.34889 8.7786C6.12309 9.32373 6.00687 9.908 6.00687 10.498C6.00687 11.0881 6.12309 11.6724 6.34889 12.2175C6.57469 12.7626 6.90565 13.2579 7.32288 13.6752C7.7401 14.0924 8.23542 14.4234 8.78055 14.6492C9.32569 14.875 9.90995 14.9912 10.5 14.9912C11.6916 14.9912 12.8345 14.5178 13.6771 13.6752C14.5197 12.8325 14.9931 11.6897 14.9931 10.498C14.9931 9.3064 14.5197 8.16355 13.6771 7.32093C12.8345 6.4783 11.6916 6.00492 10.5 6.00492ZM16.2207 5.8273C16.2207 5.96518 16.1936 6.10172 16.1408 6.22911C16.0881 6.35651 16.0107 6.47226 15.9132 6.56976C15.8157 6.66726 15.7 6.7446 15.5726 6.79737C15.4452 6.85014 15.3086 6.8773 15.1707 6.8773C15.0329 6.8773 14.8963 6.85014 14.7689 6.79737C14.6415 6.7446 14.5258 6.66726 14.4283 6.56976C14.3308 6.47226 14.2534 6.35651 14.2007 6.22911C14.1479 6.10172 14.1207 5.96518 14.1207 5.8273C14.1207 5.54882 14.2314 5.28175 14.4283 5.08483C14.6252 4.88792 14.8923 4.7773 15.1707 4.7773C15.4492 4.7773 15.7163 4.88792 15.9132 5.08483C16.1101 5.28175 16.2207 5.54882 16.2207 5.8273Z" fill="#F8F9FB"/>
</svg>
