<svg width="95" height="95" viewBox="0 0 95 95" fill="none" xmlns="http://www.w3.org/2000/svg">
<path d="M47.5013 7.91663C25.6909 7.91663 7.91797 25.6895 7.91797 47.5C7.91797 69.3104 25.6909 87.0833 47.5013 87.0833C69.3117 87.0833 87.0846 69.3104 87.0846 47.5C87.0846 25.6895 69.3117 7.91663 47.5013 7.91663ZM66.4221 38.3958L43.9784 60.8395C43.4242 61.3937 42.6721 61.7104 41.8805 61.7104C41.0888 61.7104 40.3367 61.3937 39.7826 60.8395L28.5805 49.6375C27.4326 48.4895 27.4326 46.5895 28.5805 45.4416C29.7284 44.2937 31.6284 44.2937 32.7763 45.4416L41.8805 54.5458L62.2263 34.2C63.3742 33.052 65.2742 33.052 66.4221 34.2C67.5701 35.3479 67.5701 37.2083 66.4221 38.3958Z" fill="#0BDA07"/>
</svg>
