<svg width="58" height="58" viewBox="0 0 58 58" fill="none" xmlns="http://www.w3.org/2000/svg">
<path d="M29.3862 26.2693C29.1445 26.2452 28.8545 26.2452 28.5887 26.2693C22.837 26.076 18.2695 21.3635 18.2695 15.5635C18.2695 9.64266 23.0545 4.8335 28.9995 4.8335C34.9204 4.8335 39.7295 9.64266 39.7295 15.5635C39.7054 21.3635 35.1379 26.076 29.3862 26.2693Z" stroke="#848484" stroke-width="3.625" stroke-linecap="round" stroke-linejoin="round"/>
<path d="M17.3042 35.1865C11.4559 39.1015 11.4559 45.4815 17.3042 49.3723C23.9501 53.819 34.8492 53.819 41.4951 49.3723C47.3434 45.4573 47.3434 39.0773 41.4951 35.1865C34.8734 30.764 23.9742 30.764 17.3042 35.1865Z" stroke="#848484" stroke-width="3.625" stroke-linecap="round" stroke-linejoin="round"/>
</svg>
