<svg width="22" height="22" viewBox="0 0 22 22" fill="none" xmlns="http://www.w3.org/2000/svg">
<path d="M7.44141 20.1737C7.19252 20.1737 6.93472 20.1115 6.70361 19.987C6.19695 19.7204 5.88585 19.187 5.88585 18.6181V17.356C3.20141 17.0804 1.44141 15.107 1.44141 12.2803V6.94705C1.44141 3.88927 3.49474 1.83594 6.55252 1.83594H15.4414C18.4992 1.83594 20.5525 3.88927 20.5525 6.94705V12.2803C20.5525 15.3381 18.4992 17.3914 15.4414 17.3914H12.0903L8.3036 19.916C8.04583 20.0849 7.74363 20.1737 7.44141 20.1737ZM6.55252 3.16037C4.25918 3.16037 2.77474 4.64482 2.77474 6.93815V12.2715C2.77474 14.5649 4.25918 16.0493 6.55252 16.0493C6.91696 16.0493 7.21918 16.3515 7.21918 16.716V18.6093C7.21918 18.7249 7.2903 18.7782 7.33474 18.8048C7.37919 18.8315 7.46809 18.8582 7.56586 18.796L11.5214 16.1649C11.6281 16.0938 11.7614 16.0493 11.8947 16.0493H15.4503C17.7436 16.0493 19.2281 14.5649 19.2281 12.2715V6.93815C19.2281 4.64482 17.7436 3.16037 15.4503 3.16037H6.55252Z" fill="#F8F9FB"/>
<path d="M10.9977 11.0985C10.6332 11.0985 10.331 10.7962 10.331 10.4318V10.2452C10.331 9.21406 11.0865 8.70738 11.371 8.51183C11.6999 8.28961 11.8065 8.1385 11.8065 7.90739C11.8065 7.46295 11.4421 7.09847 10.9977 7.09847C10.5532 7.09847 10.1888 7.46295 10.1888 7.90739C10.1888 8.27183 9.88658 8.57406 9.52214 8.57406C9.15769 8.57406 8.85547 8.27183 8.85547 7.90739C8.85547 6.72517 9.81544 5.76514 10.9977 5.76514C12.1799 5.76514 13.1399 6.72517 13.1399 7.90739C13.1399 8.92072 12.3932 9.42737 12.1177 9.61404C11.771 9.84515 11.6643 9.99628 11.6643 10.2452V10.4318C11.6643 10.8051 11.3621 11.0985 10.9977 11.0985Z" fill="#F8F9FB"/>
<path d="M10.9987 13.3118C10.6254 13.3118 10.332 13.0096 10.332 12.6452C10.332 12.2807 10.6343 11.9785 10.9987 11.9785C11.3631 11.9785 11.6654 12.2807 11.6654 12.6452C11.6654 13.0096 11.372 13.3118 10.9987 13.3118Z" fill="#F8F9FB"/>
</svg>
