<svg width="24" height="25" viewBox="0 0 24 25" fill="none" xmlns="http://www.w3.org/2000/svg">
<path d="M21 9.73926V15.5093C21 17.6293 21 17.6293 19 18.9793L13.5 22.1593C12.67 22.6393 11.32 22.6393 10.5 22.1593L5 18.9793C3 17.6293 3 17.6293 3 15.5193V9.73926C3 7.62926 3 7.62926 5 6.27926L10.5 3.09926C11.32 2.61926 12.67 2.61926 13.5 3.09926L19 6.27926C21 7.62926 21 7.62926 21 9.73926Z" stroke="#D43D35" stroke-width="1.5" stroke-linecap="round" stroke-linejoin="round"/>
<path d="M12 15.6289C10.3431 15.6289 9 14.2858 9 12.6289C9 10.9721 10.3431 9.62891 12 9.62891C13.6569 9.62891 15 10.9721 15 12.6289C15 14.2858 13.6569 15.6289 12 15.6289Z" stroke="#D43D35" stroke-width="1.5" stroke-linecap="round" stroke-linejoin="round"/>
</svg>
