<svg width="20" height="20" viewBox="0 0 20 20" fill="none" xmlns="http://www.w3.org/2000/svg">
<path d="M15 8.95835C14.6583 8.95835 14.375 8.67502 14.375 8.33335V6.66669C14.375 4.04169 13.6333 2.29169 10 2.29169C6.36667 2.29169 5.625 4.04169 5.625 6.66669V8.33335C5.625 8.67502 5.34167 8.95835 5 8.95835C4.65833 8.95835 4.375 8.67502 4.375 8.33335V6.66669C4.375 4.25002 4.95833 1.04169 10 1.04169C15.0417 1.04169 15.625 4.25002 15.625 6.66669V8.33335C15.625 8.67502 15.3417 8.95835 15 8.95835Z" fill="#D43D35"/>
<path d="M10.0003 16.0417C8.50866 16.0417 7.29199 14.825 7.29199 13.3333C7.29199 11.8417 8.50866 10.625 10.0003 10.625C11.492 10.625 12.7087 11.8417 12.7087 13.3333C12.7087 14.825 11.492 16.0417 10.0003 16.0417ZM10.0003 11.875C9.20033 11.875 8.54199 12.5333 8.54199 13.3333C8.54199 14.1333 9.20033 14.7917 10.0003 14.7917C10.8003 14.7917 11.4587 14.1333 11.4587 13.3333C11.4587 12.5333 10.8003 11.875 10.0003 11.875Z" fill="#D43D35"/>
<path d="M14.167 18.9583H5.83366C2.15866 18.9583 1.04199 17.8416 1.04199 14.1666V12.5C1.04199 8.82498 2.15866 7.70831 5.83366 7.70831H14.167C17.842 7.70831 18.9587 8.82498 18.9587 12.5V14.1666C18.9587 17.8416 17.842 18.9583 14.167 18.9583ZM5.83366 8.95831C2.85033 8.95831 2.29199 9.52498 2.29199 12.5V14.1666C2.29199 17.1416 2.85033 17.7083 5.83366 17.7083H14.167C17.1503 17.7083 17.7087 17.1416 17.7087 14.1666V12.5C17.7087 9.52498 17.1503 8.95831 14.167 8.95831H5.83366Z" fill="#D43D35"/>
</svg>
