<svg width="21" height="21" viewBox="0 0 21 21" fill="none" xmlns="http://www.w3.org/2000/svg">
<path fill-rule="evenodd" clip-rule="evenodd" d="M13.7594 19.248V12.4712H16.0344L16.3747 9.83042H13.7585V8.1443C13.7585 7.37955 13.9711 6.85805 15.0684 6.85805H16.4666V4.49555C15.7895 4.42348 15.1089 4.38843 14.4279 4.39055C12.4119 4.39055 11.032 5.62167 11.032 7.8818V9.83042H8.75V12.4712H11.0311V19.248H2.716C2.18225 19.248 1.75 18.8158 1.75 18.282V2.71405C1.75 2.1803 2.18225 1.74805 2.716 1.74805H18.284C18.8177 1.74805 19.25 2.1803 19.25 2.71405V18.282C19.25 18.8158 18.8177 19.248 18.284 19.248H13.7594Z" fill="#F8F9FB"/>
</svg>
